<?xml version="1.0" encoding="utf-8"?><!-- Uploaded to: SVG Repo, www.svgrepo.com, Generator: SVG Repo Mixer Tools -->
<svg fill="#000000" width="800px" height="800px" viewBox="0 0 24 24" id="up-direction-circle" data-name="Flat Line" xmlns="http://www.w3.org/2000/svg" class="icon flat-line"><path id="secondary" d="M12,3a9,9,0,1,0,9,9A9,9,0,0,0,12,3Zm2,9v5H10V12H8l3.18-4.61a1,1,0,0,1,1.64,0L16,12Z" style="fill: rgb(44, 169, 188); stroke-width: 2;"></path><path id="primary" d="M14,12v5H10V12H8l3.18-4.61a1,1,0,0,1,1.64,0L16,12ZM12,3a9,9,0,1,0,9,9A9,9,0,0,0,12,3Z" style="fill: none; stroke: rgb(0, 0, 0); stroke-linecap: round; stroke-linejoin: round; stroke-width: 2;"></path></svg>